<?xml version="1.0" encoding="UTF-8"?>
<svg id="Capa_1" data-name="Capa 1" xmlns="http://www.w3.org/2000/svg" viewBox="0 0 1080 1080">
  <defs>
    <style>
      .cls-1 {
        fill: #00d47e;
      }

      .cls-1, .cls-2 {
        stroke-width: 0px;
      }

      .cls-2 {
        fill: #024751;
      }
    </style>
  </defs>
  <circle class="cls-1" cx="540" cy="540" r="536.74"/>
  <path class="cls-2" d="M922.63,533.77l-141.94-141.96-141.95,141.96,50.87,50.87,23.72-23.71c-10.37,84.24-82.23,149.72-169.22,149.72-94.09,0-170.64-76.54-170.64-170.64s76.55-170.64,170.64-170.64c17.68,0,35.33,2.76,52.28,8.14,7.66,2.85,26.22,18.66,38.18,32.55l100.28-85.67c-11.31-13.28-51.83-57.75-98.34-72.53-30.07-9.54-61.16-14.39-92.4-14.39-166.82,0-302.53,135.71-302.53,302.53s135.72,302.53,302.53,302.53,292.11-125.61,301.89-283.67l25.77,25.77,50.88-50.87Z"/>
</svg>