<?xml version="1.0" encoding="UTF-8"?>
<svg id="Capa_2" data-name="Capa 2" xmlns="http://www.w3.org/2000/svg" viewBox="0 0 1828.7 236.87">
  <defs>
    <style>
      .cls-1 {
        fill: #00d47e;
        stroke-width: 0px;
      }
    </style>
  </defs>
  <g id="Capa_1-2" data-name="Capa 1">
    <g>
      <g>
        <path class="cls-1" d="M221.81,134.79H57.42c7.44,25.2,28.91,42.96,58.24,42.96,23.13,0,42.54-11.15,52.87-29.74l45.85,20.65c-18.59,33.46-54.11,57-100.37,57C49.15,225.66,0,177.75,0,114.96S48.33,4.26,111.94,4.26c71.46,0,121.44,59.48,109.87,130.52ZM58.24,92.24h107.81c-7.44-23.96-27.67-40.07-54.11-40.07s-45.85,16.11-53.7,40.07Z"/>
        <path class="cls-1" d="M365.14,4.26c45.44,0,84.26,24.37,102.44,67.74l-51.22,17.76c-9.5-21.89-28.5-34.28-51.22-34.28-31.81,0-56.18,25.61-56.18,59.48s24.37,59.89,56.18,59.89c22.72,0,41.72-12.81,51.22-34.7l51.22,17.76c-18.18,43.37-57,67.74-102.44,67.74-64.85,0-114-47.91-114-110.7S300.29,4.26,365.14,4.26Z"/>
        <path class="cls-1" d="M605.55,4.26c64.85,0,114,47.91,114,110.7s-49.15,110.7-114,110.7-114-47.91-114-110.7S540.7,4.26,605.55,4.26ZM605.55,174.85c32.22,0,56.18-25.61,56.18-59.89s-23.96-59.48-56.18-59.48-56.18,25.61-56.18,59.48,24.37,59.89,56.18,59.89Z"/>
        <path class="cls-1" d="M1083.87,92.24v129.28h-55.76v-119.37c0-27.68-16.52-47.09-40.48-47.09-22.72,0-40.07,19.41-40.07,47.09v119.37h-55.76v-119.37c0-27.68-16.52-47.09-40.07-47.09s-40.07,19.41-40.07,47.09v119.37h-55.76V8.39h55.76v25.61c14.05-18.18,33.87-29.74,58.24-29.74,27.26,0,49.15,12.8,63.2,34.28,14.87-21.07,38.41-34.28,66.09-34.28,50.39,0,84.68,37.18,84.68,87.98Z"/>
        <path class="cls-1" d="M1549.87,8.39h56.18l-84.26,213.13h-62.79l-84.26-213.13h60.31l57.41,156.96,57.41-156.96Z"/>
        <path class="cls-1" d="M1827.03,134.79h-164.4c7.44,25.2,28.91,42.96,58.24,42.96,23.13,0,42.54-11.15,52.87-29.74l45.85,20.65c-18.59,33.46-54.11,57-100.37,57-64.85,0-114-47.91-114-110.7s48.33-110.7,111.94-110.7c71.46,0,121.44,59.48,109.87,130.52ZM1663.46,92.24h107.81c-7.44-23.96-27.67-40.07-54.11-40.07s-45.85,16.11-53.7,40.07Z"/>
      </g>
      <path class="cls-1" d="M1368.78,116l-55.57-55.58-55.57,55.58,19.91,19.91,9.28-9.28c-4.06,32.98-32.19,58.61-66.25,58.61-36.83,0-66.8-29.97-66.8-66.8s29.97-66.8,66.8-66.8c6.92,0,13.83,1.08,20.47,3.19,3,1.11,10.26,7.31,14.95,12.74l39.26-33.54c-4.43-5.2-20.29-22.61-38.5-28.39-11.77-3.74-23.94-5.63-36.17-5.63-65.3,0-118.43,53.13-118.43,118.43s53.13,118.43,118.43,118.43,114.35-49.17,118.18-111.05l10.09,10.09,19.92-19.91Z"/>
    </g>
  </g>
</svg>